<?xml version="1.0" encoding="UTF-8"?>
<svg id="Capa_2" data-name="Capa 2" xmlns="http://www.w3.org/2000/svg" viewBox="0 0 759.82 75.78">
  <defs>
    <style>
      .cls-1 {
        fill: #e5d7bf;
        stroke-width: 0px;
      }
    </style>
  </defs>
  <g id="Capa_1-2" data-name="Capa 1">
    <g>
      <path class="cls-1" d="M48.38,1.37v6.11h-20.45v67.56h-7.38V7.48H0V1.37h48.38Z"/>
      <path class="cls-1" d="M114.78,1.37v73.67h-7.38v-34.47h-39.95v34.47h-7.38V1.37h7.38v33.1h39.95V1.37h7.38Z"/>
      <path class="cls-1" d="M146.19,70.99c-5.55-3.2-9.93-7.66-13.12-13.39-3.2-5.73-4.8-12.21-4.8-19.45s1.6-13.72,4.8-19.45c3.2-5.73,7.57-10.19,13.12-13.39,5.55-3.2,11.73-4.8,18.55-4.8s13.1,1.6,18.66,4.8c5.55,3.2,9.91,7.66,13.07,13.39,3.16,5.73,4.74,12.21,4.74,19.45s-1.58,13.72-4.74,19.45c-3.16,5.73-7.52,10.19-13.07,13.39-5.55,3.2-11.77,4.8-18.66,4.8s-13-1.6-18.55-4.8ZM179.49,65.56c4.36-2.53,7.8-6.17,10.33-10.91,2.53-4.74,3.79-10.24,3.79-16.5s-1.26-11.73-3.79-16.44c-2.53-4.71-5.97-8.33-10.33-10.86-4.36-2.53-9.28-3.79-14.76-3.79s-10.4,1.27-14.76,3.79c-4.36,2.53-7.8,6.15-10.33,10.86-2.53,4.71-3.79,10.19-3.79,16.44s1.26,11.75,3.79,16.5,5.97,8.38,10.33,10.91c4.36,2.53,9.28,3.79,14.76,3.79s10.4-1.26,14.76-3.79Z"/>
      <path class="cls-1" d="M286.69,2.32v72.73h-7.38V16.97l-25.93,58.08h-5.38l-25.93-57.86v57.86h-7.38V2.32h7.8l28.14,63.03,28.14-63.03h7.91Z"/>
      <path class="cls-1" d="M346.13,57.55h-33.52l-6.43,17.5h-7.8L325.26,2.32h8.33l26.77,72.73h-7.8l-6.43-17.5ZM343.92,51.44l-14.55-39.84-14.54,39.84h29.09Z"/>
      <path class="cls-1" d="M381.7,73.25c-3.69-1.69-6.59-4.04-8.7-7.06-2.11-3.02-3.23-6.39-3.37-10.12h7.8c.35,3.58,1.93,6.73,4.74,9.43,2.81,2.71,6.92,4.06,12.33,4.06,4.99,0,8.94-1.28,11.86-3.85,2.92-2.56,4.38-5.81,4.38-9.75,0-3.16-.81-5.71-2.43-7.64-1.62-1.93-3.62-3.37-6.01-4.32-2.39-.95-5.69-1.98-9.91-3.11-4.92-1.33-8.82-2.63-11.7-3.9-2.88-1.27-5.34-3.23-7.38-5.9-2.04-2.67-3.06-6.29-3.06-10.86,0-3.79.98-7.18,2.95-10.17,1.97-2.99,4.74-5.32,8.33-7.01,3.58-1.69,7.69-2.53,12.33-2.53,6.81,0,12.31,1.67,16.5,5.01,4.18,3.34,6.59,7.64,7.22,12.91h-8.01c-.49-3.02-2.14-5.71-4.95-8.06-2.81-2.35-6.61-3.53-11.38-3.53-4.43,0-8.11,1.18-11.07,3.53-2.95,2.35-4.43,5.57-4.43,9.64,0,3.09.81,5.59,2.42,7.48,1.62,1.9,3.64,3.34,6.06,4.32,2.42.98,5.71,2.04,9.85,3.16,4.78,1.34,8.64,2.65,11.6,3.95,2.95,1.3,5.44,3.29,7.48,5.96,2.04,2.67,3.06,6.25,3.06,10.75,0,3.44-.91,6.71-2.74,9.8-1.83,3.09-4.53,5.59-8.12,7.48-3.58,1.9-7.87,2.85-12.86,2.85s-9.12-.84-12.81-2.53Z"/>
      <path class="cls-1" d="M470.92,61.13h23.61v13.91h-41.63V1.05h18.02v60.08Z"/>
      <path class="cls-1" d="M519.04,70.93c-5.8-3.23-10.4-7.75-13.81-13.54-3.41-5.8-5.11-12.31-5.11-19.55s1.7-13.74,5.11-19.5c3.41-5.76,8.01-10.26,13.81-13.49,5.8-3.23,12.17-4.85,19.13-4.85s13.33,1.62,19.13,4.85c5.8,3.23,10.36,7.73,13.7,13.49,3.34,5.76,5.01,12.26,5.01,19.5s-1.69,13.75-5.06,19.55c-3.37,5.8-7.94,10.31-13.7,13.54-5.76,3.23-12.12,4.85-19.08,4.85s-13.33-1.62-19.13-4.85ZM552.34,53.44c3.55-3.93,5.32-9.13,5.32-15.6s-1.78-11.75-5.32-15.65c-3.55-3.9-8.27-5.85-14.18-5.85s-10.73,1.93-14.28,5.8c-3.55,3.87-5.32,9.1-5.32,15.71s1.77,11.75,5.32,15.65c3.55,3.9,8.31,5.85,14.28,5.85s10.63-1.97,14.18-5.9Z"/>
      <path class="cls-1" d="M639.46,36.63c-1.97,3.55-4.99,6.41-9.06,8.59-4.08,2.18-9.13,3.27-15.18,3.27h-11.17v26.56h-18.02V1.05h29.2c5.9,0,10.89,1.02,14.97,3.06,4.07,2.04,7.13,4.85,9.17,8.43,2.04,3.58,3.06,7.69,3.06,12.33,0,4.29-.98,8.2-2.95,11.75ZM621.54,31.73c1.69-1.62,2.53-3.9,2.53-6.85s-.84-5.23-2.53-6.85c-1.69-1.62-4.25-2.42-7.69-2.42h-9.8v18.55h9.8c3.44,0,6.01-.81,7.69-2.42Z"/>
      <path class="cls-1" d="M669.81,15.49v14.97h24.14v13.91h-24.14v16.23h27.3v14.44h-45.32V1.05h45.32v14.44h-27.3Z"/>
      <path class="cls-1" d="M727.99,60.29h31.83v14.76h-52.28v-13.7l31.62-45.53h-31.62V1.05h52.28v13.7l-31.83,45.53Z"/>
    </g>
  </g>
</svg>